# xmcd
#
# Track frame offsets: 
#        150
#        20273
#        38365
#        56514
#        72158
#        86527
#        100025
#        121529
#        132441
#        148435
#        166766
#
# Disc length: 2441 seconds
#
# Revision: 1
# Processed by: cddbd v1.5.2PL0 Copyright (c) Steve Scherf et al.
# Submitted via: ExactAudioCopyFreeDBPlugin 1.0
#
DISCID=8509870b
DTITLE=Various Artist - Absolute Sound
DYEAR=2005
DGENRE=Blues
TTITLE0=Ian Parker - Misfits and Fools
TTITLE1=Ian Parker - Funny How
TTITLE2=Ana Popovic - Jaco
TTITLE3=Ana Popovic - Comfort to the Soul
TTITLE4=Candye Kayne - It must be Love
TTITLE5=Candye Kayne - Mistress Carmen
TTITLE6=Walter Trout - Cry If You Want To
TTITLE7=Walter Trout - Lonely Tonight
TTITLE8=Friend 'n Fellow - Blue in You
TTITLE9=Friend 'n Fellow - Taxi
TTITLE10=Friend 'n Fellow - Forbidden Wine
EXTD=
EXTT0=
EXTT1=
EXTT2=
EXTT3=
EXTT4=
EXTT5=
EXTT6=
EXTT7=
EXTT8=
EXTT9=
EXTT10=
PLAYORDER=
